<mxfile host="app.diagrams.net" agent="Mozilla/5.0 (Windows NT 10.0; Win64; x64) AppleWebKit/537.36 (KHTML, like Gecko) Chrome/127.0.0.0 Safari/537.36" version="24.7.6">
  <diagram name="Page-1" id="nJJnafO_fd_O5B0ljYaE">
    <mxGraphModel dx="1687" dy="908" grid="1" gridSize="10" guides="1" tooltips="1" connect="1" arrows="1" fold="1" page="1" pageScale="1" pageWidth="827" pageHeight="1169" background="none" math="0" shadow="0">
      <root>
        <mxCell id="0" />
        <mxCell id="1" parent="0" />
        <mxCell id="wv1w6u0_H0yo6xEIdQ3Y-41" value="" style="verticalLabelPosition=bottom;verticalAlign=top;html=1;shape=mxgraph.basic.rect;fillColor2=none;strokeWidth=1;size=20;indent=5;" vertex="1" parent="1">
          <mxGeometry x="14" y="400" width="636" height="390" as="geometry" />
        </mxCell>
        <mxCell id="wv1w6u0_H0yo6xEIdQ3Y-19" value="" style="verticalAlign=top;verticalLabelPosition=bottom;labelPosition=center;align=center;html=1;outlineConnect=0;fillColor=#e1d5e7;strokeColor=#9673a6;gradientDirection=north;strokeWidth=2;shape=mxgraph.networks.user_male;" vertex="1" parent="1">
          <mxGeometry x="680" y="20" width="40" height="100" as="geometry" />
        </mxCell>
        <mxCell id="wv1w6u0_H0yo6xEIdQ3Y-5" value="&lt;font style=&quot;font-size: 16px;&quot;&gt;&lt;b&gt;Client at&lt;br&gt;Home 90 Km of the farm&lt;/b&gt;&lt;/font&gt;" style="text;html=1;align=center;verticalAlign=middle;whiteSpace=wrap;rounded=0;" vertex="1" parent="1">
          <mxGeometry x="730" y="20" width="90" height="120" as="geometry" />
        </mxCell>
        <mxCell id="wv1w6u0_H0yo6xEIdQ3Y-10" value="" style="html=1;outlineConnect=0;fillColor=#CCCCCC;strokeColor=#6881B3;gradientColor=none;gradientDirection=north;strokeWidth=2;shape=mxgraph.networks.comm_link_edge;html=1;rounded=0;exitX=0.92;exitY=0.5;exitDx=0;exitDy=0;exitPerimeter=0;" edge="1" parent="1" source="wv1w6u0_H0yo6xEIdQ3Y-11" target="wv1w6u0_H0yo6xEIdQ3Y-19">
          <mxGeometry width="100" height="100" relative="1" as="geometry">
            <mxPoint x="510" y="180" as="sourcePoint" />
            <mxPoint x="680" y="75" as="targetPoint" />
          </mxGeometry>
        </mxCell>
        <mxCell id="wv1w6u0_H0yo6xEIdQ3Y-11" value="" style="sketch=0;aspect=fixed;pointerEvents=1;shadow=0;dashed=0;html=1;strokeColor=none;labelPosition=center;verticalLabelPosition=bottom;verticalAlign=top;align=center;fillColor=#00188D;shape=mxgraph.mscae.enterprise.internet_hollow" vertex="1" parent="1">
          <mxGeometry x="220" y="10" width="225.81" height="140" as="geometry" />
        </mxCell>
        <mxCell id="wv1w6u0_H0yo6xEIdQ3Y-13" value="" style="html=1;outlineConnect=0;fillColor=#CCCCCC;strokeColor=#6881B3;gradientColor=none;gradientDirection=north;strokeWidth=2;shape=mxgraph.networks.comm_link_edge;html=1;rounded=0;entryX=0.5;entryY=1;entryDx=0;entryDy=0;entryPerimeter=0;" edge="1" parent="1" target="wv1w6u0_H0yo6xEIdQ3Y-11">
          <mxGeometry width="100" height="100" relative="1" as="geometry">
            <mxPoint x="290" y="440" as="sourcePoint" />
            <mxPoint x="452" y="240" as="targetPoint" />
          </mxGeometry>
        </mxCell>
        <mxCell id="wv1w6u0_H0yo6xEIdQ3Y-16" value="" style="verticalAlign=top;verticalLabelPosition=bottom;labelPosition=center;align=center;html=1;outlineConnect=0;fillColor=#fff2cc;strokeColor=#d6b656;gradientDirection=north;strokeWidth=2;shape=mxgraph.networks.router;" vertex="1" parent="1">
          <mxGeometry x="250" y="430" width="100" height="30" as="geometry" />
        </mxCell>
        <mxCell id="wv1w6u0_H0yo6xEIdQ3Y-17" value="" style="fontColor=#0066CC;verticalAlign=top;verticalLabelPosition=bottom;labelPosition=center;align=center;html=1;outlineConnect=0;fillColor=#CCCCCC;strokeColor=#6881B3;gradientColor=none;gradientDirection=north;strokeWidth=2;shape=mxgraph.networks.security_camera;" vertex="1" parent="1">
          <mxGeometry x="20" y="430" width="100" height="75" as="geometry" />
        </mxCell>
        <mxCell id="wv1w6u0_H0yo6xEIdQ3Y-21" value="" style="sketch=0;aspect=fixed;pointerEvents=1;shadow=0;dashed=0;html=1;strokeColor=none;labelPosition=center;verticalLabelPosition=bottom;verticalAlign=top;align=center;fillColor=#00188D;shape=mxgraph.mscae.enterprise.device" vertex="1" parent="1">
          <mxGeometry x="520" y="510" width="50" height="26" as="geometry" />
        </mxCell>
        <mxCell id="wv1w6u0_H0yo6xEIdQ3Y-24" style="edgeStyle=orthogonalEdgeStyle;rounded=0;orthogonalLoop=1;jettySize=auto;html=1;exitX=0.5;exitY=1;exitDx=0;exitDy=0;exitPerimeter=0;" edge="1" parent="1" source="wv1w6u0_H0yo6xEIdQ3Y-22">
          <mxGeometry relative="1" as="geometry">
            <mxPoint x="90" y="680" as="targetPoint" />
          </mxGeometry>
        </mxCell>
        <mxCell id="wv1w6u0_H0yo6xEIdQ3Y-49" value="" style="edgeStyle=orthogonalEdgeStyle;rounded=0;sketch=1;hachureGap=4;jiggle=2;curveFitting=1;orthogonalLoop=1;jettySize=auto;html=1;fontFamily=Architects Daughter;fontSource=https%3A%2F%2Ffonts.googleapis.com%2Fcss%3Ffamily%3DArchitects%2BDaughter;strokeColor=#4C0099;" edge="1" parent="1" source="wv1w6u0_H0yo6xEIdQ3Y-22" target="wv1w6u0_H0yo6xEIdQ3Y-47">
          <mxGeometry relative="1" as="geometry" />
        </mxCell>
        <mxCell id="wv1w6u0_H0yo6xEIdQ3Y-22" value="" style="sketch=0;aspect=fixed;pointerEvents=1;shadow=0;dashed=0;html=1;strokeColor=none;labelPosition=center;verticalLabelPosition=bottom;verticalAlign=top;align=center;fillColor=#00188D;shape=mxgraph.mscae.enterprise.device" vertex="1" parent="1">
          <mxGeometry x="60" y="660" width="50" height="26" as="geometry" />
        </mxCell>
        <mxCell id="wv1w6u0_H0yo6xEIdQ3Y-23" value="" style="sketch=0;aspect=fixed;pointerEvents=1;shadow=0;dashed=0;html=1;strokeColor=none;labelPosition=center;verticalLabelPosition=bottom;verticalAlign=top;align=center;fillColor=#00188D;shape=mxgraph.mscae.enterprise.device" vertex="1" parent="1">
          <mxGeometry x="380" y="660" width="50" height="26" as="geometry" />
        </mxCell>
        <mxCell id="wv1w6u0_H0yo6xEIdQ3Y-26" value="" style="sketch=0;aspect=fixed;pointerEvents=1;shadow=0;dashed=0;html=1;strokeColor=none;labelPosition=center;verticalLabelPosition=bottom;verticalAlign=top;align=center;fillColor=#00188D;shape=mxgraph.mscae.enterprise.wireless_connection;rotation=-50;" vertex="1" parent="1">
          <mxGeometry x="70" y="590" width="63.83" height="76" as="geometry" />
        </mxCell>
        <mxCell id="wv1w6u0_H0yo6xEIdQ3Y-27" value="" style="sketch=0;aspect=fixed;pointerEvents=1;shadow=0;dashed=0;html=1;strokeColor=none;labelPosition=center;verticalLabelPosition=bottom;verticalAlign=top;align=center;fillColor=#00188D;shape=mxgraph.mscae.enterprise.wireless_connection;rotation=-110;" vertex="1" parent="1">
          <mxGeometry x="366.17" y="584" width="63.83" height="76" as="geometry" />
        </mxCell>
        <mxCell id="wv1w6u0_H0yo6xEIdQ3Y-29" value="" style="sketch=0;aspect=fixed;pointerEvents=1;shadow=0;dashed=0;html=1;strokeColor=none;labelPosition=center;verticalLabelPosition=bottom;verticalAlign=top;align=center;fillColor=#00188D;shape=mxgraph.mscae.enterprise.wireless_connection;rotation=-145;" vertex="1" parent="1">
          <mxGeometry x="490" y="450" width="63.83" height="76" as="geometry" />
        </mxCell>
        <mxCell id="wv1w6u0_H0yo6xEIdQ3Y-34" value="" style="sketch=0;aspect=fixed;pointerEvents=1;shadow=0;dashed=0;html=1;strokeColor=none;labelPosition=center;verticalLabelPosition=bottom;verticalAlign=top;align=center;fillColor=#00188D;shape=mxgraph.mscae.enterprise.performance_monitor" vertex="1" parent="1">
          <mxGeometry x="380" y="690" width="50" height="36" as="geometry" />
        </mxCell>
        <mxCell id="wv1w6u0_H0yo6xEIdQ3Y-35" value="" style="sketch=0;aspect=fixed;pointerEvents=1;shadow=0;dashed=0;html=1;strokeColor=none;labelPosition=center;verticalLabelPosition=bottom;verticalAlign=top;align=center;fillColor=#00188D;shape=mxgraph.mscae.enterprise.performance_monitor" vertex="1" parent="1">
          <mxGeometry x="520" y="539" width="50" height="36" as="geometry" />
        </mxCell>
        <mxCell id="wv1w6u0_H0yo6xEIdQ3Y-37" value="" style="fontColor=#0066CC;verticalAlign=top;verticalLabelPosition=bottom;labelPosition=center;align=center;html=1;outlineConnect=0;fillColor=#CCCCCC;strokeColor=#6881B3;gradientColor=none;gradientDirection=north;strokeWidth=2;shape=mxgraph.networks.users;" vertex="1" parent="1">
          <mxGeometry x="55" y="690" width="60" height="50" as="geometry" />
        </mxCell>
        <mxCell id="wv1w6u0_H0yo6xEIdQ3Y-38" value="&lt;font style=&quot;font-size: 14px;&quot;&gt;&lt;b&gt;Soil Sensor&lt;/b&gt;&lt;/font&gt;" style="text;html=1;align=center;verticalAlign=middle;whiteSpace=wrap;rounded=0;" vertex="1" parent="1">
          <mxGeometry x="500" y="575" width="90" height="37.5" as="geometry" />
        </mxCell>
        <mxCell id="wv1w6u0_H0yo6xEIdQ3Y-39" value="&lt;font style=&quot;font-size: 14px;&quot;&gt;&lt;b&gt;Temperature Sensor&lt;/b&gt;&lt;/font&gt;" style="text;html=1;align=center;verticalAlign=middle;whiteSpace=wrap;rounded=0;" vertex="1" parent="1">
          <mxGeometry x="350" y="732.25" width="140" height="37.5" as="geometry" />
        </mxCell>
        <mxCell id="wv1w6u0_H0yo6xEIdQ3Y-40" value="&lt;font style=&quot;font-size: 14px;&quot;&gt;&lt;b&gt;Ultrasonic + servo&lt;br&gt;Track the movement&lt;/b&gt;&lt;/font&gt;" style="text;html=1;align=center;verticalAlign=middle;whiteSpace=wrap;rounded=0;" vertex="1" parent="1">
          <mxGeometry x="30" y="740" width="150" height="50" as="geometry" />
        </mxCell>
        <mxCell id="wv1w6u0_H0yo6xEIdQ3Y-42" value="&lt;font style=&quot;font-size: 24px;&quot;&gt;&lt;b&gt;The Farm location&lt;/b&gt;&lt;/font&gt;" style="text;html=1;align=center;verticalAlign=middle;whiteSpace=wrap;rounded=1;fillColor=#d5e8d4;strokeColor=#000000;dashed=1;strokeWidth=2;perimeterSpacing=0;shadow=1;glass=1;rotation=-90;" vertex="1" parent="1">
          <mxGeometry x="597" y="575" width="230" height="70" as="geometry" />
        </mxCell>
        <mxCell id="wv1w6u0_H0yo6xEIdQ3Y-43" value="Raspberry pi" style="text;html=1;align=center;verticalAlign=middle;whiteSpace=wrap;rounded=0;" vertex="1" parent="1">
          <mxGeometry x="260" y="470" width="90" height="30" as="geometry" />
        </mxCell>
        <mxCell id="wv1w6u0_H0yo6xEIdQ3Y-44" value="&lt;font style=&quot;font-size: 14px;&quot;&gt;&lt;b&gt;Cloud service&lt;/b&gt;&lt;/font&gt;" style="text;html=1;align=center;verticalAlign=middle;whiteSpace=wrap;rounded=0;" vertex="1" parent="1">
          <mxGeometry x="280" y="80" width="110" height="30" as="geometry" />
        </mxCell>
        <mxCell id="wv1w6u0_H0yo6xEIdQ3Y-46" value="&lt;font style=&quot;font-size: 14px;&quot;&gt;&lt;b&gt;Camera&lt;/b&gt;&lt;/font&gt;" style="text;html=1;align=center;verticalAlign=middle;whiteSpace=wrap;rounded=0;" vertex="1" parent="1">
          <mxGeometry x="20" y="509" width="60" height="30" as="geometry" />
        </mxCell>
        <mxCell id="wv1w6u0_H0yo6xEIdQ3Y-47" value="" style="image;sketch=0;aspect=fixed;html=1;points=[];align=center;fontSize=12;image=img/lib/mscae/Application_Insights.svg;hachureGap=4;jiggle=2;curveFitting=1;fontFamily=Architects Daughter;fontSource=https%3A%2F%2Ffonts.googleapis.com%2Fcss%3Ffamily%3DArchitects%2BDaughter;" vertex="1" parent="1">
          <mxGeometry x="220" y="666" width="32" height="50" as="geometry" />
        </mxCell>
        <mxCell id="wv1w6u0_H0yo6xEIdQ3Y-48" value="&lt;font style=&quot;font-size: 14px;&quot;&gt;&lt;b&gt;Light&lt;/b&gt;&lt;/font&gt;" style="text;html=1;align=center;verticalAlign=middle;whiteSpace=wrap;rounded=0;" vertex="1" parent="1">
          <mxGeometry x="165.99999999999997" y="716" width="140" height="37.5" as="geometry" />
        </mxCell>
      </root>
    </mxGraphModel>
  </diagram>
</mxfile>
